<svg width="600" height="600" xmlns="http://www.w3.org/2000/svg">
 <g>
  <title>background</title>
  <rect fill="none" id="canvas_background" height="602" width="602" y="-1" x="-1"/>
 </g>
 <g>
  <title>Layer 1</title>
  <g id="svg_144">
   <rect x="0.05342" y="0.42738" transform="matrix(37.4375, 0, 0, 37.4375, 3.71598e-06, 0)" fill="none" height="16" width="16" id="svg_134"/>
   <g transform="matrix(37.4375, 0, 0, 37.4375, 3.71598e-06, 0)" id="svg_136" fill-rule="evenodd" fill="none">
    <g id="svg_137">
     <path id="svg_138" d="m15.30342,8.46638c-0.039,-0.031 -0.4,-0.304 -1.162,-0.304c-0.202,0 -0.403,0.018 -0.601,0.052c-0.148,-1.012 -0.984,-1.505 -1.021,-1.527l-0.206,-0.118l-0.134,0.195a2.744,2.744 0 0 0 -0.364,0.85c-0.137,0.578 -0.054,1.12 0.24,1.583c-0.355,0.198 -0.923,0.246 -1.038,0.25l-9.964,0c-0.05,1.381 0.087,2.44 0.412,3.176c0.488,1.104 1.03,1.813 1.933,2.244c0.903,0.43 1.459,0.576 2.753,0.576a9.368,9.368 0 0 0 1.743,-0.158a7.286,7.286 0 0 0 2.274,-0.826a6.253,6.253 0 0 0 1.552,-1.27c0.745,-0.844 1.19,-2.384 1.52,-3.218l0.13,0c0.817,0 1.318,-0.327 1.595,-0.6a1.74,1.74 0 0 0 0.42,-0.623l0.059,-0.171l-0.141,-0.111z" fill="#34A2F2"/>
     <circle id="svg_139" fill="#FFF" r="1.25" cy="11.67738" cx="5.20342"/>
     <circle id="svg_140" fill-rule="nonzero" fill="#34A2F2" r="1" cy="11.67738" cx="5.20342"/>
    </g>
    <path id="svg_141" d="m3.05342,5.42738l3,0l0,3l-3,0l0,-3z" fill-rule="nonzero" fill="#34A2F2"/>
    <path id="svg_142" d="m7.05342,5.42738l3,0l0,3l-3,0l0,-3z" fill-rule="nonzero" fill="#34A2F2"/>
    <path id="svg_143" d="m5.05342,1.42738l3,0l0,3l-3,0l0,-3z" fill-rule="nonzero" fill="#34A2F2"/>
   </g>
  </g>
  <g id="svg_358">
   <rect x="8.52423" y="6.5918" transform="matrix(34.5, 0, 0, 34.5, -280.086, -247.417)" fill="none" height="16" width="16" id="svg_353"/>
   <g transform="matrix(34.5, 0, 0, 34.5, -280.086, -247.417)" id="svg_355" fill-rule="evenodd" fill="#6E6E6E">
    <path id="svg_356" d="m17.79623,17.3198l1.556,-1.556l4.414,4.414l-1.556,1.556l-4.414,-4.414z"/>
    <path id="svg_357" d="m15.27423,19.0918a5.75,5.75 0 1 1 0,-11.5a5.75,5.75 0 0 1 0,11.5zm0,-2a3.75,3.75 0 1 0 0,-7.5a3.75,3.75 0 0 0 0,7.5z"/>
   </g>
  </g>
 </g>
</svg>